<svg xmlns="http://www.w3.org/2000/svg" xmlns:xlink="http://www.w3.org/1999/xlink" xmlns:lucid="lucid" width="3000" height="3000"><g transform="translate(2500 500)" lucid:page-tab-id="0_0"><path d="M-2500-500H500v3000h-3000z" fill="#fff"/><path d="M-940-130c0 93.9-107.45 170-240 170s-240-76.1-240-170 107.45-170 240-170 240 76.1 240 170z" stroke="#000" stroke-width="2" fill="#fff"/><use xlink:href="#a" transform="matrix(1,0,0,1,-1415,-295) translate(162.705078125 177.96875)"/><path d="M-1780 266a6 6 0 0 1 6-6h323.5a6 6 0 0 1 6 6v239.5a6 6 0 0 1-6 6H-1774a6 6 0 0 1-6-6z" stroke="#000" stroke-width="2" fill="#fff"/><use xlink:href="#b" transform="matrix(1,0,0,1,-1768,272) translate(32.025390625 102.875)"/><use xlink:href="#c" transform="matrix(1,0,0,1,-1768,272) translate(183.900390625 102.875)"/><use xlink:href="#d" transform="matrix(1,0,0,1,-1768,272) translate(87.923828125 160.953125)"/><path d="M-960 266a6 6 0 0 1 6-6h323.5a6 6 0 0 1 6 6v239.5a6 6 0 0 1-6 6H-954a6 6 0 0 1-6-6z" stroke="#000" stroke-width="2" fill="#fff"/><use xlink:href="#e" transform="matrix(1,0,0,1,-948,272) translate(3.587890625 102.875)"/><use xlink:href="#f" transform="matrix(1,0,0,1,-948,272) translate(124.056640625 102.875)"/><use xlink:href="#g" transform="matrix(1,0,0,1,-948,272) translate(21.703125 160.953125)"/><use xlink:href="#h" transform="matrix(1,0,0,1,-948,272) translate(232.796875 160.953125)"/><path d="M-400 266a6 6 0 0 1 6-6h323.5a6 6 0 0 1 6 6v239.5a6 6 0 0 1-6 6H-394a6 6 0 0 1-6-6z" stroke="#000" stroke-width="2" fill="#fff"/><use xlink:href="#i" transform="matrix(1,0,0,1,-388,272) translate(40.55078125 102.875)"/><use xlink:href="#j" transform="matrix(1,0,0,1,-388,272) translate(26.76171875 160.953125)"/><use xlink:href="#k" transform="matrix(1,0,0,1,-388,272) translate(108.01171875 160.953125)"/><use xlink:href="#l" transform="matrix(1,0,0,1,-388,272) translate(143.578125 160.953125)"/><path d="M-1180 41.5V144a6 6 0 0 1-6 6h-420.25a6 6 0 0 0-6 6v86.62" stroke="#3a414a" fill="none"/><path d="M-1180 41h.47v.5h-.94V41z" stroke="#3a414a" stroke-width=".05" fill="#3a414a"/><path d="M-1612.25 257.38l-4.63-14.26h9.27z" stroke="#3a414a" fill="#3a414a"/><path d="M-792.25 258.5V145a6 6 0 0 0-6-6h-365.37" stroke="#3a414a" fill="none"/><path d="M-791.77 259h-.96v-.5h.96z" stroke="#3a414a" stroke-width=".05" fill="#3a414a"/><path d="M-1178.38 139l14.26-4.63v9.26z" stroke="#3a414a" fill="#3a414a"/><path d="M-623 385.75h205.62" stroke="#3a414a" fill="none"/><path d="M-623 386.23h-.5v-.96h.5z" stroke="#3a414a" stroke-width=".05" fill="#3a414a"/><path d="M-402.62 385.75l-14.26 4.63v-9.26z" stroke="#3a414a" fill="#3a414a"/><path d="M-1830 700c49.7 0 90 40.3 90 90s-40.3 90-90 90h-300c-49.7 0-90-40.3-90-90s40.3-90 90-90z" stroke="#000" stroke-width="2" fill="#fff"/><use xlink:href="#m" transform="matrix(1,0,0,1,-2215,705) translate(131.796875 97.1875)"/><use xlink:href="#n" transform="matrix(1,0,0,1,-2215,705) translate(260.17578125 97.1875)"/><path d="M-1090 700c49.7 0 90 40.3 90 90s-40.3 90-90 90h-280c-49.7 0-90-40.3-90-90s40.3-90 90-90z" stroke="#000" stroke-width="2" fill="#fff"/><use xlink:href="#o" transform="matrix(1,0,0,1,-1455,705) translate(122.2265625 97.1875)"/><use xlink:href="#n" transform="matrix(1,0,0,1,-1455,705) translate(249.74609375 97.1875)"/><path d="M-1612.25 513v86.75a6 6 0 0 1-6 6H-1974a6 6 0 0 0-6 6v70.87" stroke="#3a414a" fill="none"/><path d="M-1611.78 513h-.94v-.5h.94z" stroke="#3a414a" stroke-width=".05" fill="#3a414a"/><path d="M-1980 697.38l-4.63-14.26h9.27z" stroke="#3a414a" fill="#3a414a"/><path d="M-1230 698.5v-86.75a6 6 0 0 0-6-6h-359.87" stroke="#3a414a" fill="none"/><path d="M-1229.53 699h-.94v-.5h.94z" stroke="#3a414a" stroke-width=".05" fill="#3a414a"/><path d="M-1610.63 605.75l14.26-4.63v9.26z" stroke="#3a414a" fill="#3a414a"/><path d="M-450 680c49.7 0 90 40.3 90 90s-40.3 90-90 90h-300c-49.7 0-90-40.3-90-90s40.3-90 90-90z" stroke="#000" stroke-width="2" fill="#fff"/><use xlink:href="#m" transform="matrix(1,0,0,1,-835,685) translate(131.796875 97.1875)"/><use xlink:href="#n" transform="matrix(1,0,0,1,-835,685) translate(260.17578125 97.1875)"/><path d="M370 660c49.7 0 90 40.3 90 90s-40.3 90-90 90H90c-49.7 0-90-40.3-90-90s40.3-90 90-90z" stroke="#000" stroke-width="2" fill="#fff"/><use xlink:href="#o" transform="matrix(1,0,0,1,5,665) translate(122.2265625 97.1875)"/><use xlink:href="#n" transform="matrix(1,0,0,1,5,665) translate(249.74609375 97.1875)"/><path d="M-232.25 513v66.75a6 6 0 0 0 6 6H224a6 6 0 0 1 6 6v50.87" stroke="#3a414a" fill="none"/><path d="M-231.78 513h-.94v-.5h.94z" stroke="#3a414a" stroke-width=".05" fill="#3a414a"/><path d="M230 657.38l-4.63-14.26h9.26z" stroke="#3a414a" fill="#3a414a"/><path d="M-600 678.5v-97.8a6 6 0 0 1 6-6h345.37" stroke="#3a414a" fill="none"/><path d="M-599.52 679h-.96v-.5h.96z" stroke="#3a414a" stroke-width=".05" fill="#3a414a"/><path d="M-233.87 574.7l-14.26 4.63v-9.27z" stroke="#3a414a" fill="#3a414a"/><path d="M-420 966a6 6 0 0 1 6-6H94a6 6 0 0 1 6 6v308a6 6 0 0 1-6 6h-508a6 6 0 0 1-6-6z" stroke="#000" stroke-width="2" fill="#fff"/><use xlink:href="#p" transform="matrix(1,0,0,1,-415,965) translate(18.0859375 140.46875)"/><use xlink:href="#q" transform="matrix(1,0,0,1,-415,965) translate(184.47265625 140.46875)"/><use xlink:href="#r" transform="matrix(1,0,0,1,-415,965) translate(306.73828125 140.46875)"/><use xlink:href="#s" transform="matrix(1,0,0,1,-415,965) translate(388.57421875 140.46875)"/><use xlink:href="#t" transform="matrix(1,0,0,1,-415,965) translate(106.455078125 198.546875)"/><use xlink:href="#u" transform="matrix(1,0,0,1,-415,965) translate(182.587890625 198.546875)"/><path d="M-600 861.5V1114a6 6 0 0 0 6 6h156.62" stroke="#3a414a" fill="none"/><path d="M-599.52 861.5h-.96v-.5h.96z" stroke="#3a414a" stroke-width=".05" fill="#3a414a"/><path d="M-422.62 1120l-14.26 4.63v-9.27z" stroke="#3a414a" fill="#3a414a"/><path d="M230 841.5V1114a6 6 0 0 1-6 6H117.38" stroke="#3a414a" fill="none"/><path d="M230.47 841.5h-.94v-.5h.94z" stroke="#3a414a" stroke-width=".05" fill="#3a414a"/><path d="M102.62 1120l14.26-4.63v9.27z" stroke="#3a414a" fill="#3a414a"/><path d="M-1820 1074.5a6 6 0 0 1 6-6h508a6 6 0 0 1 6 6v308a6 6 0 0 1-6 6h-508a6 6 0 0 1-6-6z" stroke="#000" stroke-width="2" fill="#fff"/><use xlink:href="#p" transform="matrix(1,0,0,1,-1815,1073.5) translate(18.0859375 140.46875)"/><use xlink:href="#q" transform="matrix(1,0,0,1,-1815,1073.5) translate(184.47265625 140.46875)"/><use xlink:href="#r" transform="matrix(1,0,0,1,-1815,1073.5) translate(306.73828125 140.46875)"/><use xlink:href="#s" transform="matrix(1,0,0,1,-1815,1073.5) translate(388.57421875 140.46875)"/><use xlink:href="#t" transform="matrix(1,0,0,1,-1815,1073.5) translate(106.455078125 198.546875)"/><use xlink:href="#u" transform="matrix(1,0,0,1,-1815,1073.5) translate(182.587890625 198.546875)"/><path d="M-1980 881.5v341a6 6 0 0 0 6 6h136.62" stroke="#3a414a" fill="none"/><path d="M-1979.53 881.5h-.94v-.5h.94z" stroke="#3a414a" stroke-width=".05" fill="#3a414a"/><path d="M-1822.62 1228.5l-14.26 4.63v-9.27z" stroke="#3a414a" fill="#3a414a"/><path d="M-1230 881.5v86.75a6 6 0 0 1-6 6h-318a6 6 0 0 0-6 6v70.87" stroke="#3a414a" fill="none"/><path d="M-1229.53 881.5h-.94v-.5h.94z" stroke="#3a414a" stroke-width=".05" fill="#3a414a"/><path d="M-1560 1065.88l-4.63-14.26h9.27z" stroke="#3a414a" fill="#3a414a"/><path d="M-790 1000c49.7 0 90 40.3 90 90s-40.3 90-90 90h-240c-49.7 0-90-40.3-90-90s40.3-90 90-90z" stroke="#000" stroke-width="2" fill="#fff"/><use xlink:href="#v" transform="matrix(1,0,0,1,-1115,1005) translate(50.888671875 97.1875)"/><use xlink:href="#w" transform="matrix(1,0,0,1,-1115,1005) translate(150.068359375 97.1875)"/><path d="M-790 1240c49.7 0 90 40.3 90 90s-40.3 90-90 90h-240c-49.7 0-90-40.3-90-90s40.3-90 90-90z" stroke="#000" stroke-width="2" fill="#fff"/><use xlink:href="#x" transform="matrix(1,0,0,1,-1115,1245) translate(73.046875 97.1875)"/><path d="M-790 1500c49.7 0 90 40.3 90 90s-40.3 90-90 90h-240c-49.7 0-90-40.3-90-90s40.3-90 90-90z" stroke="#000" stroke-width="2" fill="#fff"/><use xlink:href="#y" transform="matrix(1,0,0,1,-1115,1505) translate(61.71875 97.1875)"/><use xlink:href="#z" transform="matrix(1,0,0,1,-1115,1505) translate(189.0625 97.1875)"/><path d="M-1121.5 1590h-52.5a6 6 0 0 1-6-6v-488a6 6 0 0 1 6-6h36.62" stroke="#3a414a" fill="none"/><path d="M-1121 1590v.47h-.5v-.94h.5z" stroke="#3a414a" stroke-width=".05" fill="#3a414a"/><path d="M-1122.62 1090l-14.26 4.63v-9.27z" stroke="#3a414a" fill="#3a414a"/><path d="M-1121.5 1330h-42.12" stroke="#3a414a" fill="none"/><path d="M-1121 1330v.47h-.5v-.94h.5z" stroke="#3a414a" stroke-width=".05" fill="#3a414a"/><path d="M-1178.38 1330l14.26-4.63v9.27z" stroke="#3a414a" fill="#3a414a"/><path d="M-1298.5 1228.5h53a6 6 0 0 1 6 6v47.5a6 6 0 0 0 6 6h37.12" stroke="#3a414a" fill="none"/><path d="M-1298.5 1228.97h-.5v-.94h.5z" stroke="#3a414a" stroke-width=".05" fill="#3a414a"/><path d="M-1181.62 1288l-14.26 4.63v-9.27z" stroke="#3a414a" fill="#3a414a"/><path d="M-992.75 1806a6 6 0 0 1 6-6h389a6 6 0 0 1 6 6v173a6 6 0 0 1-6 6h-389a6 6 0 0 1-6-6z" stroke="#000" stroke-width="2" fill="#fff"/><g><use xlink:href="#A" transform="matrix(1,0,0,1,-980.75,1812) translate(29.466796875 94.09375)"/><use xlink:href="#B" transform="matrix(1,0,0,1,-980.75,1812) translate(207.318359375 94.09375)"/></g><path d="M-1560 1390v496.5a6 6 0 0 0 6 6h543.87" stroke="#3a414a" fill="none"/><path d="M-1559.53 1390h-.94v-.5h.94z" stroke="#3a414a" stroke-width=".05" fill="#3a414a"/><path d="M-995.37 1892.5l-14.26 4.63v-9.27z" stroke="#3a414a" fill="#3a414a"/><path d="M-160 1281.5v605a6 6 0 0 1-6 6h-408.37" stroke="#3a414a" fill="none"/><path d="M-159.53 1281.5h-.94v-.5h.94z" stroke="#3a414a" stroke-width=".05" fill="#3a414a"/><path d="M-589.13 1892.5l14.26-4.63v9.27z" stroke="#3a414a" fill="#3a414a"/><path d="M-1860 2266a6 6 0 0 1 6-6h508a6 6 0 0 1 6 6v168a6 6 0 0 1-6 6h-508a6 6 0 0 1-6-6z" stroke="#000" stroke-width="2" fill="#fff"/><g><use xlink:href="#C" transform="matrix(1,0,0,1,-1848,2272) translate(205.68771701388889 84.90277777777777)"/></g><path d="M-1010 2266a6 6 0 0 1 6-6h508a6 6 0 0 1 6 6v168a6 6 0 0 1-6 6h-508a6 6 0 0 1-6-6z" stroke="#000" stroke-width="2" fill="#fff"/><g><use xlink:href="#C" transform="matrix(1,0,0,1,-998,2272) translate(205.68771701388889 84.90277777777777)"/></g><path d="M-160 2266a6 6 0 0 1 6-6h508a6 6 0 0 1 6 6v168a6 6 0 0 1-6 6h-508a6 6 0 0 1-6-6z" stroke="#000" stroke-width="2" fill="#fff"/><g><use xlink:href="#C" transform="matrix(1,0,0,1,-148,2272) translate(205.68771701388889 84.90277777777777)"/></g><path d="M-1600 2258.5V2126a6 6 0 0 1 6-6H94a6 6 0 0 1 6 6v116.62" stroke="#3a414a" fill="none"/><path d="M-1599.53 2259h-.94v-.5h.94z" stroke="#3a414a" stroke-width=".05" fill="#3a414a"/><path d="M100 2257.38l-4.64-14.26h9.28z" stroke="#3a414a" fill="#3a414a"/><path d="M-750 2258.5v-122.12" stroke="#3a414a" fill="none"/><path d="M-749.52 2259h-.96v-.5h.96z" stroke="#3a414a" stroke-width=".05" fill="#3a414a"/><path d="M-750 2121.62l4.63 14.26h-9.26z" stroke="#3a414a" fill="#3a414a"/><path d="M-792.25 1986.5v138.22a6 6 0 0 0 6 6h19.87" stroke="#3a414a" fill="none"/><path d="M-791.77 1986.5h-.96v-.5h.96z" stroke="#3a414a" stroke-width=".05" fill="#3a414a"/><path d="M-751.62 2130.72l-14.26 4.63v-9.27z" stroke="#3a414a" fill="#3a414a"/><defs><path d="M645 0H180v-1490h484c435 0 692 280 692 742 0 466-257 748-711 748zM370-168h263c363 0 539-218 539-580 0-358-176-574-521-574H370v1154" id="D"/><path d="M471 26C259 26 90-98 90-318c0-256 228-303 435-329 202-27 287-16 287-108 0-139-79-219-234-219-161 0-248 86-283 164l-173-57c86-203 278-265 451-265 150 0 419 46 419 395V0H815v-152h-12C765-73 660 26 471 26zm31-159c199 0 310-134 310-271v-155c-30 35-226 55-295 64-131 17-246 59-246 186 0 116 97 176 231 176" id="E"/><path d="M598-1118v154H368v674c0 100 37 144 132 144 23 0 62-6 92-12L629-6c-37 13-88 20-134 20-193 0-307-107-307-290v-688H20v-154h168v-266h180v266h230" id="F"/><path d="M538 24C308 24 148-78 108-271l171-41c32 123 123 178 257 178 156 0 256-77 256-169 0-77-54-128-164-154l-186-44c-203-48-300-148-300-305 0-192 176-326 414-326 230 0 351 112 402 269l-163 42c-31-80-94-158-238-158-133 0-233 69-233 162 0 83 57 129 188 160l169 40c203 48 298 149 298 302 0 196-179 339-441 339" id="G"/><path d="M628 24c-324 0-524-230-524-574 0-343 198-582 503-582 237 0 487 146 487 559v75H286c9 234 145 362 343 362 132 0 231-58 273-172l174 48C1024-91 857 24 628 24zM287-650h624c-17-190-120-322-304-322-192 0-309 151-320 322" id="H"/><g id="a"><use transform="matrix(0.01953125,0,0,0.01953125,0,0)" xlink:href="#D"/><use transform="matrix(0.01953125,0,0,0.01953125,28.8671875,0)" xlink:href="#E"/><use transform="matrix(0.01953125,0,0,0.01953125,51.328125,0)" xlink:href="#F"/><use transform="matrix(0.01953125,0,0,0.01953125,64.609375,0)" xlink:href="#E"/><use transform="matrix(0.01953125,0,0,0.01953125,87.0703125,0)" xlink:href="#G"/><use transform="matrix(0.01953125,0,0,0.01953125,108.18359375,0)" xlink:href="#H"/><use transform="matrix(0.01953125,0,0,0.01953125,131.50390625,0)" xlink:href="#F"/></g><path d="M180 0v-1490h190v644h782v-644h190V0h-190v-678H370V0H180" id="I"/><path d="M763 24c-353 0-583-224-583-531v-983h190v968c0 214 149 370 393 370 243 0 391-156 391-370v-968h190v983c0 307-230 531-581 531" id="J"/><path d="M158 0v-1118h175l1 205c55-151 181-225 313-225 147 0 245 90 285 228 53-141 190-228 352-228 194 0 352 125 352 384V0h-181v-749c0-161-105-225-225-225-151 0-243 103-243 244V0H807v-767c0-124-93-207-219-207-131 0-250 92-250 270V0H158" id="K"/><path d="M338-670V0H158v-1118h173l1 207c72-158 192-221 342-221 226 0 378 139 378 422V0H872v-695c0-172-96-275-252-275-161 0-282 109-282 300" id="L"/><g id="b"><use transform="matrix(0.01953125,0,0,0.01953125,0,0)" xlink:href="#I"/><use transform="matrix(0.01953125,0,0,0.01953125,29.7265625,0)" xlink:href="#J"/><use transform="matrix(0.01953125,0,0,0.01953125,59.4921875,0)" xlink:href="#K"/><use transform="matrix(0.01953125,0,0,0.01953125,94.53125,0)" xlink:href="#E"/><use transform="matrix(0.01953125,0,0,0.01953125,116.9921875,0)" xlink:href="#L"/></g><path d="M338-670V0H158v-1490h180v566c73-149 190-208 336-208 226 0 379 139 379 422V0H872v-695c0-172-96-275-252-275-161 0-282 109-282 300" id="M"/><g id="c"><use transform="matrix(0.01953125,0,0,0.01953125,0,0)" xlink:href="#F"/><use transform="matrix(0.01953125,0,0,0.01953125,12.6953125,0)" xlink:href="#H"/><use transform="matrix(0.01953125,0,0,0.01953125,36.015625,0)" xlink:href="#H"/><use transform="matrix(0.01953125,0,0,0.01953125,59.3359375,0)" xlink:href="#F"/><use transform="matrix(0.01953125,0,0,0.01953125,72.421875,0)" xlink:href="#M"/></g><path d="M158 0v-1118h180V0H158zm91-1301c-68 0-125-53-125-119s57-119 125-119c69 0 126 53 126 119s-57 119-126 119" id="N"/><path d="M611 442c-248 0-391-105-460-228l146-94c47 65 117 165 314 165 178 0 307-82 307-266v-224h-17C863-141 792-18 576-18c-268 0-472-195-472-546 0-346 197-568 476-568 216 0 288 133 326 193h17v-179h175V29c0 289-215 413-487 413zm-5-620c203 0 314-146 314-390 0-237-108-403-314-403-213 0-319 180-319 403 0 230 109 390 319 390" id="O"/><g id="d"><use transform="matrix(0.01953125,0,0,0.01953125,0,0)" xlink:href="#N"/><use transform="matrix(0.01953125,0,0,0.01953125,9.6875,0)" xlink:href="#K"/><use transform="matrix(0.01953125,0,0,0.01953125,44.7265625,0)" xlink:href="#E"/><use transform="matrix(0.01953125,0,0,0.01953125,67.1875,0)" xlink:href="#O"/><use transform="matrix(0.01953125,0,0,0.01953125,91.71875,0)" xlink:href="#H"/><use transform="matrix(0.01953125,0,0,0.01953125,115.0390625,0)" xlink:href="#G"/></g><path d="M545 20c-263 0-445-160-445-446v-80h190v80c0 182 102 279 255 279 152 0 254-97 254-279v-1064h190v1064c0 286-181 446-444 446" id="P"/><path d="M657 26c-323 0-524-166-541-416h195c15 169 171 246 346 246 202 0 356-106 356-265 5-203-294-238-475-293-239-73-380-191-380-389 0-252 224-419 512-419 294 0 499 171 508 396H992c-17-145-151-228-328-228-193 0-321 102-321 242 0 156 175 211 284 241l149 41c160 44 422 134 422 412 0 244-197 432-541 432" id="Q"/><path d="M784 20c-382 0-662-292-662-764 0-473 280-766 662-766s660 293 660 766c0 472-278 764-660 764zm0-176c266 0 475-207 475-588 0-383-209-590-475-590-268 0-477 208-477 590 0 380 209 588 477 588" id="R"/><path d="M180 0v-1490h224l606 953c40 63 108 177 176 312-27-437-7-821-13-1265h190V0h-226C860-448 622-778 356-1262c27 476 11 792 15 1262H180" id="S"/><g id="e"><use transform="matrix(0.01953125,0,0,0.01953125,0,0)" xlink:href="#P"/><use transform="matrix(0.01953125,0,0,0.01953125,22.83203125,0)" xlink:href="#Q"/><use transform="matrix(0.01953125,0,0,0.01953125,48.49609375,0)" xlink:href="#R"/><use transform="matrix(0.01953125,0,0,0.01953125,79.08203125,0)" xlink:href="#S"/></g><path d="M158 418v-1536h174v179h20c37-59 106-193 324-193 279 0 474 222 474 576 0 356-194 580-473 580-213 0-288-135-325-197h-14v591H158zm492-555c209 0 317-186 317-421 0-232-105-413-317-413-206 0-314 166-314 413 0 249 111 421 314 421" id="T"/><path d="M613 24c-304 0-509-231-509-576 0-350 205-580 509-580 305 0 511 230 511 580 0 345-206 576-511 576zm0-161c226 0 329-195 329-415 0-222-103-419-329-419-223 0-326 196-326 419 0 220 103 415 326 415" id="U"/><path d="M338-1490V0H158v-1490h180" id="V"/><path d="M140 405l46-156c120 36 205 19 263-150l32-93L54-1118h197c107 313 237 620 324 950 87-331 219-637 326-950h196L606 167c-68 178-176 259-334 259-64 0-113-12-132-21" id="W"/><g id="f"><use transform="matrix(0.01953125,0,0,0.01953125,0,0)" xlink:href="#T"/><use transform="matrix(0.01953125,0,0,0.01953125,24.4921875,0)" xlink:href="#U"/><use transform="matrix(0.01953125,0,0,0.01953125,48.4765625,0)" xlink:href="#V"/><use transform="matrix(0.01953125,0,0,0.01953125,58.359375,0)" xlink:href="#W"/><use transform="matrix(0.01953125,0,0,0.01953125,80.05859375,0)" xlink:href="#O"/><use transform="matrix(0.01953125,0,0,0.01953125,104.58984375,0)" xlink:href="#U"/><use transform="matrix(0.01953125,0,0,0.01953125,128.57421875,0)" xlink:href="#L"/><use transform="matrix(0.01953125,0,0,0.01953125,152.20703125,0)" xlink:href="#E"/><use transform="matrix(0.01953125,0,0,0.01953125,174.66796875,0)" xlink:href="#V"/></g><g id="g"><use transform="matrix(0.01953125,0,0,0.01953125,0,0)" xlink:href="#E"/><use transform="matrix(0.01953125,0,0,0.01953125,22.4609375,0)" xlink:href="#L"/><use transform="matrix(0.01953125,0,0,0.01953125,46.09375,0)" xlink:href="#L"/><use transform="matrix(0.01953125,0,0,0.01953125,69.7265625,0)" xlink:href="#U"/><use transform="matrix(0.01953125,0,0,0.01953125,93.7109375,0)" xlink:href="#F"/><use transform="matrix(0.01953125,0,0,0.01953125,106.9921875,0)" xlink:href="#E"/><use transform="matrix(0.01953125,0,0,0.01953125,129.453125,0)" xlink:href="#F"/><use transform="matrix(0.01953125,0,0,0.01953125,142.5390625,0)" xlink:href="#N"/><use transform="matrix(0.01953125,0,0,0.01953125,152.2265625,0)" xlink:href="#U"/><use transform="matrix(0.01953125,0,0,0.01953125,176.2109375,0)" xlink:href="#L"/></g><path d="M678-1118v154H420V0H240v-964H20v-154h220v-149c0-194 155-293 318-293 85 0 141 18 168 30l-50 154c-19-6-47-17-97-17-111 0-159 58-159 166v109h258" id="X"/><g id="h"><use transform="matrix(0.01953125,0,0,0.01953125,0,0)" xlink:href="#X"/><use transform="matrix(0.01953125,0,0,0.01953125,14.8046875,0)" xlink:href="#N"/><use transform="matrix(0.01953125,0,0,0.01953125,24.4921875,0)" xlink:href="#V"/><use transform="matrix(0.01953125,0,0,0.01953125,34.1796875,0)" xlink:href="#H"/></g><path d="M783 20c-382 0-661-292-661-764 0-473 279-766 661-766 302 0 548 182 601 489h-190c-42-204-217-313-411-313-268 0-476 208-476 590 0 381 209 588 476 588 195 0 369-110 411-313h190c-52 303-296 489-601 489" id="Y"/><path d="M158 0v-1118h174v172h12c41-113 157-188 290-188 26 0 70 2 91 3v181c-11-2-60-10-108-10-161 0-279 109-279 260V0H158" id="Z"/><path d="M126 0v-134l627-806v-11H146v-167h839v143L376-178v11h629V0H126" id="aa"/><path d="M577 24c-279 0-473-224-473-580 0-354 195-576 474-576 218 0 287 134 324 193h14v-551h180V0H922v-173h-20C865-111 790 24 577 24zm27-161c203 0 314-172 314-421 0-247-108-413-314-413-212 0-317 181-317 413 0 235 108 421 317 421" id="ab"/><g id="i"><use transform="matrix(0.01953125,0,0,0.01953125,0,0)" xlink:href="#Y"/><use transform="matrix(0.01953125,0,0,0.01953125,29.21875,0)" xlink:href="#E"/><use transform="matrix(0.01953125,0,0,0.01953125,51.6796875,0)" xlink:href="#F"/><use transform="matrix(0.01953125,0,0,0.01953125,64.375,0)" xlink:href="#H"/><use transform="matrix(0.01953125,0,0,0.01953125,87.6953125,0)" xlink:href="#O"/><use transform="matrix(0.01953125,0,0,0.01953125,112.2265625,0)" xlink:href="#U"/><use transform="matrix(0.01953125,0,0,0.01953125,136.2109375,0)" xlink:href="#Z"/><use transform="matrix(0.01953125,0,0,0.01953125,151.89453125,0)" xlink:href="#N"/><use transform="matrix(0.01953125,0,0,0.01953125,161.58203125,0)" xlink:href="#aa"/><use transform="matrix(0.01953125,0,0,0.01953125,183.0859375,0)" xlink:href="#H"/><use transform="matrix(0.01953125,0,0,0.01953125,206.40625,0)" xlink:href="#ab"/></g><g id="j"><use transform="matrix(0.01953125,0,0,0.01953125,0,0)" xlink:href="#N"/><use transform="matrix(0.01953125,0,0,0.01953125,9.6875,0)" xlink:href="#L"/><use transform="matrix(0.01953125,0,0,0.01953125,33.3203125,0)" xlink:href="#F"/><use transform="matrix(0.01953125,0,0,0.01953125,46.015625,0)" xlink:href="#U"/></g><path d="M626 20c-262 0-458-168-468-396h184c12 133 134 229 284 229 180 0 311-137 311-326 0-192-136-335-323-335-92 0-196 33-255 78l-178-22 88-738h784v167H429l-51 435h8c61-51 160-87 263-87 273 0 474 211 474 499 0 286-210 496-497 496" id="ac"/><use transform="matrix(0.01953125,0,0,0.01953125,0,0)" xlink:href="#ac" id="k"/><path d="M613 24c-304 0-509-231-509-576 0-350 205-580 509-580 216 0 392 114 453 309l-173 49c-33-115-133-197-280-197-223 0-326 196-326 419 0 220 103 415 326 415 150 0 252-85 285-206l172 49C1010-95 832 24 613 24" id="ad"/><g id="l"><use transform="matrix(0.01953125,0,0,0.01953125,0,0)" xlink:href="#ad"/><use transform="matrix(0.01953125,0,0,0.01953125,22.8515625,0)" xlink:href="#V"/><use transform="matrix(0.01953125,0,0,0.01953125,32.5390625,0)" xlink:href="#E"/><use transform="matrix(0.01953125,0,0,0.01953125,55,0)" xlink:href="#G"/><use transform="matrix(0.01953125,0,0,0.01953125,76.11328125,0)" xlink:href="#G"/><use transform="matrix(0.01953125,0,0,0.01953125,97.2265625,0)" xlink:href="#H"/><use transform="matrix(0.01953125,0,0,0.01953125,120.546875,0)" xlink:href="#G"/></g><g id="m"><use transform="matrix(0.01953125,0,0,0.01953125,0,0)" xlink:href="#J"/><use transform="matrix(0.01953125,0,0,0.01953125,29.765625,0)" xlink:href="#T"/><use transform="matrix(0.01953125,0,0,0.01953125,54.2578125,0)" xlink:href="#T"/><use transform="matrix(0.01953125,0,0,0.01953125,78.75,0)" xlink:href="#H"/><use transform="matrix(0.01953125,0,0,0.01953125,102.0703125,0)" xlink:href="#Z"/></g><path d="M409 0L70-1118h191c89 329 165 560 243 925 75-353 154-601 240-925h192c85 325 161 564 235 922 77-354 157-598 244-922h191L1267 0h-179c-86-307-176-590-250-913C763-588 675-308 588 0H409" id="ae"/><g id="n"><use transform="matrix(0.01953125,0,0,0.01953125,0,0)" xlink:href="#P"/><use transform="matrix(0.01953125,0,0,0.01953125,22.83203125,0)" xlink:href="#E"/><use transform="matrix(0.01953125,0,0,0.01953125,45.29296875,0)" xlink:href="#ae"/></g><path d="M180 0v-1490h190v1322h690V0H180" id="af"/><g id="o"><use transform="matrix(0.01953125,0,0,0.01953125,0,0)" xlink:href="#af"/><use transform="matrix(0.01953125,0,0,0.01953125,22.6171875,0)" xlink:href="#U"/><use transform="matrix(0.01953125,0,0,0.01953125,45.87890625,0)" xlink:href="#ae"/><use transform="matrix(0.01953125,0,0,0.01953125,77.890625,0)" xlink:href="#H"/><use transform="matrix(0.01953125,0,0,0.01953125,101.2109375,0)" xlink:href="#Z"/></g><g id="p"><use transform="matrix(0.01953125,0,0,0.01953125,0,0)" xlink:href="#K"/><use transform="matrix(0.01953125,0,0,0.01953125,35.0390625,0)" xlink:href="#H"/><use transform="matrix(0.01953125,0,0,0.01953125,58.359375,0)" xlink:href="#Z"/><use transform="matrix(0.01953125,0,0,0.01953125,72.75390625,0)" xlink:href="#O"/><use transform="matrix(0.01953125,0,0,0.01953125,97.28515625,0)" xlink:href="#N"/><use transform="matrix(0.01953125,0,0,0.01953125,106.97265625,0)" xlink:href="#L"/><use transform="matrix(0.01953125,0,0,0.01953125,130.60546875,0)" xlink:href="#O"/></g><path d="M537 14c-226 0-379-139-379-422v-710h180v695c0 172 97 275 253 275 160 0 281-109 281-300v-670h181V0H879v-209C806-46 684 14 537 14" id="ag"/><g id="q"><use transform="matrix(0.01953125,0,0,0.01953125,0,0)" xlink:href="#ag"/><use transform="matrix(0.01953125,0,0,0.01953125,23.65234375,0)" xlink:href="#T"/><use transform="matrix(0.01953125,0,0,0.01953125,48.14453125,0)" xlink:href="#T"/><use transform="matrix(0.01953125,0,0,0.01953125,72.63671875,0)" xlink:href="#H"/><use transform="matrix(0.01953125,0,0,0.01953125,95.95703125,0)" xlink:href="#Z"/></g><g id="r"><use transform="matrix(0.01953125,0,0,0.01953125,0,0)" xlink:href="#E"/><use transform="matrix(0.01953125,0,0,0.01953125,22.4609375,0)" xlink:href="#L"/><use transform="matrix(0.01953125,0,0,0.01953125,46.09375,0)" xlink:href="#ab"/></g><g id="s"><use transform="matrix(0.01953125,0,0,0.01953125,0,0)" xlink:href="#V"/><use transform="matrix(0.01953125,0,0,0.01953125,9.6875,0)" xlink:href="#U"/><use transform="matrix(0.01953125,0,0,0.01953125,32.94921875,0)" xlink:href="#ae"/><use transform="matrix(0.01953125,0,0,0.01953125,64.9609375,0)" xlink:href="#H"/><use transform="matrix(0.01953125,0,0,0.01953125,88.28125,0)" xlink:href="#Z"/></g><path d="M157-1118h181V80c1 225-123 350-364 338V252c126 9 184-48 183-172v-1198zm91-183c-68 0-125-53-125-119s57-119 125-119c69 0 126 53 126 119s-57 119-126 119" id="ah"/><g id="t"><use transform="matrix(0.01953125,0,0,0.01953125,0,0)" xlink:href="#ah"/><use transform="matrix(0.01953125,0,0,0.01953125,9.6875,0)" xlink:href="#E"/><use transform="matrix(0.01953125,0,0,0.01953125,32.1484375,0)" xlink:href="#ae"/></g><g id="u"><use transform="matrix(0.01953125,0,0,0.01953125,0,0)" xlink:href="#E"/><use transform="matrix(0.01953125,0,0,0.01953125,22.4609375,0)" xlink:href="#L"/><use transform="matrix(0.01953125,0,0,0.01953125,46.09375,0)" xlink:href="#L"/><use transform="matrix(0.01953125,0,0,0.01953125,69.7265625,0)" xlink:href="#U"/><use transform="matrix(0.01953125,0,0,0.01953125,93.7109375,0)" xlink:href="#F"/><use transform="matrix(0.01953125,0,0,0.01953125,106.9921875,0)" xlink:href="#E"/><use transform="matrix(0.01953125,0,0,0.01953125,129.453125,0)" xlink:href="#F"/><use transform="matrix(0.01953125,0,0,0.01953125,142.5390625,0)" xlink:href="#N"/><use transform="matrix(0.01953125,0,0,0.01953125,152.2265625,0)" xlink:href="#U"/><use transform="matrix(0.01953125,0,0,0.01953125,176.2109375,0)" xlink:href="#L"/><use transform="matrix(0.01953125,0,0,0.01953125,199.84375,0)" xlink:href="#G"/></g><path d="M52 0l541-1490h220L1361 0h-200l-149-416H398L254 0H52zm404-582h497c-103-290-145-390-251-756-108 377-145 460-246 756" id="ai"/><g id="v"><use transform="matrix(0.01953125,0,0,0.01953125,0,0)" xlink:href="#ai"/><use transform="matrix(0.01953125,0,0,0.01953125,27.59765625,0)" xlink:href="#ag"/><use transform="matrix(0.01953125,0,0,0.01953125,51.25,0)" xlink:href="#F"/><use transform="matrix(0.01953125,0,0,0.01953125,63.9453125,0)" xlink:href="#U"/></g><g id="w"><use transform="matrix(0.01953125,0,0,0.01953125,0,0)" xlink:href="#R"/><use transform="matrix(0.01953125,0,0,0.01953125,30.5859375,0)" xlink:href="#Z"/><use transform="matrix(0.01953125,0,0,0.01953125,46.26953125,0)" xlink:href="#N"/><use transform="matrix(0.01953125,0,0,0.01953125,55.95703125,0)" xlink:href="#H"/><use transform="matrix(0.01953125,0,0,0.01953125,79.27734375,0)" xlink:href="#L"/><use transform="matrix(0.01953125,0,0,0.01953125,102.91015625,0)" xlink:href="#F"/><use transform="matrix(0.01953125,0,0,0.01953125,116.19140625,0)" xlink:href="#E"/><use transform="matrix(0.01953125,0,0,0.01953125,138.65234375,0)" xlink:href="#F"/><use transform="matrix(0.01953125,0,0,0.01953125,151.73828125,0)" xlink:href="#N"/><use transform="matrix(0.01953125,0,0,0.01953125,161.42578125,0)" xlink:href="#U"/><use transform="matrix(0.01953125,0,0,0.01953125,185.41015625,0)" xlink:href="#L"/></g><g id="x"><use transform="matrix(0.01953125,0,0,0.01953125,0,0)" xlink:href="#ai"/><use transform="matrix(0.01953125,0,0,0.01953125,27.59765625,0)" xlink:href="#ag"/><use transform="matrix(0.01953125,0,0,0.01953125,51.25,0)" xlink:href="#O"/><use transform="matrix(0.01953125,0,0,0.01953125,75.78125,0)" xlink:href="#K"/><use transform="matrix(0.01953125,0,0,0.01953125,110.8203125,0)" xlink:href="#H"/><use transform="matrix(0.01953125,0,0,0.01953125,134.140625,0)" xlink:href="#L"/><use transform="matrix(0.01953125,0,0,0.01953125,157.7734375,0)" xlink:href="#F"/><use transform="matrix(0.01953125,0,0,0.01953125,171.0546875,0)" xlink:href="#E"/><use transform="matrix(0.01953125,0,0,0.01953125,193.515625,0)" xlink:href="#F"/><use transform="matrix(0.01953125,0,0,0.01953125,206.6015625,0)" xlink:href="#N"/><use transform="matrix(0.01953125,0,0,0.01953125,216.2890625,0)" xlink:href="#U"/><use transform="matrix(0.01953125,0,0,0.01953125,240.2734375,0)" xlink:href="#L"/></g><path d="M370-1490V0H180v-1490h190" id="aj"/><g id="y"><use transform="matrix(0.01953125,0,0,0.01953125,0,0)" xlink:href="#aj"/><use transform="matrix(0.01953125,0,0,0.01953125,10.7421875,0)" xlink:href="#K"/><use transform="matrix(0.01953125,0,0,0.01953125,45.78125,0)" xlink:href="#E"/><use transform="matrix(0.01953125,0,0,0.01953125,68.2421875,0)" xlink:href="#O"/><use transform="matrix(0.01953125,0,0,0.01953125,92.7734375,0)" xlink:href="#H"/></g><path d="M180 0v-1490h510c348 0 508 194 508 460 0 198-88 351-276 417L1256 0h-220L726-579c-117 2-238 0-356 1V0H180zm190-747h312c235 0 327-108 327-283 0-177-92-293-329-293H370v576" id="ak"/><g id="z"><use transform="matrix(0.01953125,0,0,0.01953125,0,0)" xlink:href="#ak"/><use transform="matrix(0.01953125,0,0,0.01953125,25.15625,0)" xlink:href="#H"/><use transform="matrix(0.01953125,0,0,0.01953125,48.4765625,0)" xlink:href="#G"/><use transform="matrix(0.01953125,0,0,0.01953125,69.58984375,0)" xlink:href="#N"/><use transform="matrix(0.01953125,0,0,0.01953125,79.27734375,0)" xlink:href="#aa"/><use transform="matrix(0.01953125,0,0,0.01953125,101.3671875,0)" xlink:href="#N"/><use transform="matrix(0.01953125,0,0,0.01953125,111.0546875,0)" xlink:href="#L"/><use transform="matrix(0.01953125,0,0,0.01953125,134.6875,0)" xlink:href="#O"/></g><path d="M180 0v-1490h270l367 940c28 72 75 218 110 339 35-117 81-264 110-339l362-940h271V0h-187c2-448-5-837 7-1287-157 497-311 829-483 1287H842C666-458 514-784 354-1284c12 438 5 843 7 1284H180" id="al"/><g id="A"><use transform="matrix(0.01953125,0,0,0.01953125,0,0)" xlink:href="#al"/><use transform="matrix(0.01953125,0,0,0.01953125,36.1328125,0)" xlink:href="#U"/><use transform="matrix(0.01953125,0,0,0.01953125,60.1171875,0)" xlink:href="#ab"/><use transform="matrix(0.01953125,0,0,0.01953125,84.609375,0)" xlink:href="#N"/><use transform="matrix(0.01953125,0,0,0.01953125,94.296875,0)" xlink:href="#X"/><use transform="matrix(0.01953125,0,0,0.01953125,109.1015625,0)" xlink:href="#N"/><use transform="matrix(0.01953125,0,0,0.01953125,118.7890625,0)" xlink:href="#H"/><use transform="matrix(0.01953125,0,0,0.01953125,142.109375,0)" xlink:href="#ab"/></g><g id="B"><use transform="matrix(0.01953125,0,0,0.01953125,0,0)" xlink:href="#ab"/><use transform="matrix(0.01953125,0,0,0.01953125,24.4921875,0)" xlink:href="#E"/><use transform="matrix(0.01953125,0,0,0.01953125,46.953125,0)" xlink:href="#F"/><use transform="matrix(0.01953125,0,0,0.01953125,60.234375,0)" xlink:href="#E"/><use transform="matrix(0.01953125,0,0,0.01953125,82.6953125,0)" xlink:href="#G"/><use transform="matrix(0.01953125,0,0,0.01953125,103.80859375,0)" xlink:href="#H"/><use transform="matrix(0.01953125,0,0,0.01953125,127.12890625,0)" xlink:href="#F"/></g><path d="M180 0v-1490h510c348 0 508 209 508 474 0 266-160 477-507 477H370V0H180zm190-706h312c236 0 327-133 327-310 0-176-91-307-329-307H370v617" id="am"/><g id="C"><use transform="matrix(0.010850694444444444,0,0,0.010850694444444444,0,0)" xlink:href="#am"/><use transform="matrix(0.010850694444444444,0,0,0.010850694444444444,14.192708333333332,0)" xlink:href="#Z"/><use transform="matrix(0.010850694444444444,0,0,0.010850694444444444,22.189670138888886,0)" xlink:href="#U"/><use transform="matrix(0.010850694444444444,0,0,0.010850694444444444,35.514322916666664,0)" xlink:href="#ad"/><use transform="matrix(0.010850694444444444,0,0,0.010850694444444444,48.209635416666664,0)" xlink:href="#H"/><use transform="matrix(0.010850694444444444,0,0,0.010850694444444444,61.16536458333333,0)" xlink:href="#G"/><use transform="matrix(0.010850694444444444,0,0,0.010850694444444444,72.89496527777777,0)" xlink:href="#G"/></g></defs></g></svg>